<?xml version="1.0" encoding="UTF-8" standalone="no"?>
<!-- Created with Inkscape (http://www.inkscape.org/) -->
<svg
   xmlns:svg="http://www.w3.org/2000/svg"
   xmlns="http://www.w3.org/2000/svg"
   xmlns:xlink="http://www.w3.org/1999/xlink"
   version="1.0"
   width="177.70599"
   height="141.006"
   viewBox="0 0 177.706 141.006"
   id="svg2"
   xml:space="preserve"><defs
   id="defs63"><linearGradient
   id="linearGradient2487"><stop
     id="stop2489"
     style="stop-color:#ffffff;stop-opacity:1"
     offset="0" /><stop
     id="stop2491"
     style="stop-color:#ffffff;stop-opacity:0"
     offset="1" /></linearGradient>
	<linearGradient
   x1="46.473099"
   y1="95.237297"
   x2="60.129799"
   y2="66.804802"
   id="SVGID_1_"
   gradientUnits="userSpaceOnUse">
		<stop
   id="stop7"
   style="stop-color:#b8dd60;stop-opacity:1"
   offset="0" />
		<stop
   id="stop9"
   style="stop-color:#75c712;stop-opacity:1"
   offset="0.5934" />
	</linearGradient>
	
	<linearGradient
   x1="88.852501"
   y1="125.5303"
   x2="88.852501"
   y2="141.5303"
   id="Moksha_1_"
   gradientUnits="userSpaceOnUse">
		<stop
   id="stop14"
   style="stop-color:#4f9e2e;stop-opacity:1"
   offset="0" />
		<stop
   id="stop16"
   style="stop-color:#2a8229;stop-opacity:1"
   offset="1" />
	</linearGradient>
	
	<linearGradient
   x1="86.924797"
   y1="45.840801"
   x2="128.78999"
   y2="59.049801"
   id="SVGID_2_"
   gradientUnits="userSpaceOnUse">
		<stop
   id="stop20"
   style="stop-color:#75c712;stop-opacity:1"
   offset="0.39559999" />
		<stop
   id="stop22"
   style="stop-color:#2a8229;stop-opacity:1"
   offset="1" />
	</linearGradient>
	
	<linearGradient
   x1="86.473099"
   y1="84.366203"
   x2="100.2232"
   y2="5.3662"
   id="SVGID_3_"
   gradientUnits="userSpaceOnUse">
		<stop
   id="stop27"
   style="stop-color:#65bf1c;stop-opacity:1"
   offset="0" />
		<stop
   id="stop29"
   style="stop-color:#2a8229;stop-opacity:1"
   offset="1" />
	</linearGradient>
	
	<linearGradient
   x1="53.685101"
   y1="69.451202"
   x2="69.132797"
   y2="51.316898"
   id="SVGID_4_"
   gradientUnits="userSpaceOnUse">
		<stop
   id="stop34"
   style="stop-color:#b8dd60;stop-opacity:1"
   offset="0" />
		<stop
   id="stop36"
   style="stop-color:#75c712;stop-opacity:1"
   offset="1" />
	</linearGradient>
	
	<defs
   id="defs40">
		<filter
   height="84.156998"
   width="38.842999"
   y="0"
   x="71.782997"
   filterUnits="userSpaceOnUse"
   id="Adobe_OpacityMaskFilter">
			<feColorMatrix
   id="feColorMatrix43"
   values="1 0 0 0 0  0 1 0 0 0  0 0 1 0 0  0 0 0 1 0"
   type="matrix" />
		</filter>
	</defs>
	<mask
   id="SVGID_5_">
		<g
   id="g46">
			<linearGradient
   x1="77.067902"
   y1="48.7803"
   x2="61.6992"
   y2="58.514099"
   id="SVGID_6_"
   gradientUnits="userSpaceOnUse">
				<stop
   id="stop49"
   style="stop-color:#ffffff;stop-opacity:1"
   offset="0" />
				<stop
   id="stop51"
   style="stop-color:#000000;stop-opacity:1"
   offset="1" />
			</linearGradient>
			<path
   d="M 55.147,71.818 C 50.007,62.642 46.172,51.935 43.883,40.158 C 43.162,36.451 42.496,32.898 42.192,29.288 C 65.238,34.078 84.794,47.505 96.588,65.762 C 92.713,71.204 89.425,77.395 86.862,84.156 C 77.79,76.349 66.979,71.817 55.372,71.817 L 55.147,71.818 z"
   id="path53" />
		</g>
	</mask>
	<linearGradient
   x1="86.473099"
   y1="84.366203"
   x2="100.2232"
   y2="5.3662"
   id="SVGID_7_"
   gradientUnits="userSpaceOnUse">
		<stop
   id="stop56"
   style="stop-color:#65bf1c;stop-opacity:1"
   offset="0" />
		<stop
   id="stop58"
   style="stop-color:#2a8229;stop-opacity:1"
   offset="1" />
	</linearGradient>
	
<linearGradient
   x1="53.685101"
   y1="69.451202"
   x2="69.132797"
   y2="51.316898"
   id="linearGradient2469"
   xlink:href="#SVGID_4_"
   gradientUnits="userSpaceOnUse" /><linearGradient
   x1="86.473099"
   y1="84.366203"
   x2="100.2232"
   y2="5.3662"
   id="linearGradient2472"
   xlink:href="#SVGID_3_"
   gradientUnits="userSpaceOnUse" /><linearGradient
   x1="86.924797"
   y1="45.840801"
   x2="128.78999"
   y2="59.049801"
   id="linearGradient2475"
   xlink:href="#SVGID_2_"
   gradientUnits="userSpaceOnUse" /><linearGradient
   x1="88.852501"
   y1="125.5303"
   x2="88.852501"
   y2="141.5303"
   id="linearGradient2478"
   xlink:href="#Moksha_1_"
   gradientUnits="userSpaceOnUse" /><linearGradient
   x1="46.473099"
   y1="95.237297"
   x2="60.129799"
   y2="66.804802"
   id="linearGradient2481"
   xlink:href="#SVGID_1_"
   gradientUnits="userSpaceOnUse" /><linearGradient
   x1="81.816765"
   y1="64.425522"
   x2="75.271416"
   y2="77.188919"
   id="linearGradient2548"
   xlink:href="#linearGradient2487"
   gradientUnits="userSpaceOnUse" /><linearGradient
   x1="85.089432"
   y1="61.152851"
   x2="75.271416"
   y2="77.188919"
   id="linearGradient2571"
   xlink:href="#linearGradient2487"
   gradientUnits="userSpaceOnUse" /><linearGradient
   x1="85.089432"
   y1="61.152851"
   x2="75.271416"
   y2="77.188919"
   id="linearGradient2577"
   xlink:href="#linearGradient2487"
   gradientUnits="userSpaceOnUse" /><linearGradient
   x1="86.071236"
   y1="59.516518"
   x2="77.235016"
   y2="75.552582"
   id="linearGradient2429"
   xlink:href="#linearGradient2487"
   gradientUnits="userSpaceOnUse" /><linearGradient
   x1="85.743965"
   y1="58.534718"
   x2="72.980545"
   y2="75.225311"
   id="linearGradient2437"
   xlink:href="#linearGradient2487"
   gradientUnits="userSpaceOnUse" /><linearGradient
   x1="85.743965"
   y1="58.534718"
   x2="72.980545"
   y2="75.225311"
   id="linearGradient2443"
   xlink:href="#linearGradient2487"
   gradientUnits="userSpaceOnUse" /><linearGradient
   x1="86.071236"
   y1="60.825588"
   x2="75.598679"
   y2="72.934441"
   id="linearGradient2452"
   xlink:href="#linearGradient2487"
   gradientUnits="userSpaceOnUse" /><linearGradient
   x1="86.071236"
   y1="60.825588"
   x2="75.598679"
   y2="72.934441"
   id="linearGradient2458"
   xlink:href="#linearGradient2487"
   gradientUnits="userSpaceOnUse" /><mask
   id="mask2454"><path
     d="M 55.147,71.818 C 50.007,62.642 46.172,51.935 43.883,40.158 C 43.162,36.451 42.496,32.898 42.192,29.288 C 65.238,34.078 84.794,47.505 96.588,65.762 C 92.713,71.204 89.425,77.395 86.862,84.156 C 77.79,76.349 66.979,71.817 55.372,71.817 L 55.147,71.818 z"
     id="path2456"
     style="fill:url(#linearGradient2458);fill-opacity:1" /></mask></defs>
<g
   id="Background">
</g>
<path
   d="M 86.863,84.157 C 89.426,77.396 92.714,71.205 96.589,65.763 C 84.794,47.506 65.239,34.078 42.193,29.289 C 36.561,47.919 32.603,91.54 62.69,107.81 C 58.128,97.141 55.42,84.885 55.148,71.819 L 55.374,71.819 C 66.979,71.818 77.791,76.351 86.863,84.157 z"
   id="path11"
   style="fill:url(#linearGradient2481)" /><path
   d="M 163.258,132.578 C 163.258,129.256 165.955,126.559 169.279,126.559 C 172.601,126.559 175.299,129.255 175.299,132.578 C 175.299,136.046 172.505,138.599 169.279,138.599 C 165.956,138.599 163.258,135.901 163.258,132.578 z M 177.706,125.355 C 177.706,124.681 177.176,124.151 176.502,124.151 C 175.828,124.151 175.299,124.681 175.299,125.355 L 175.299,126.655 C 173.758,125.114 171.639,124.151 169.279,124.151 C 164.607,124.151 160.851,127.907 160.851,132.578 C 160.851,137.25 164.607,141.006 169.279,141.006 C 171.638,141.006 173.758,140.043 175.299,138.502 L 175.299,139.803 C 175.299,140.476 175.828,141.006 176.502,141.006 C 177.176,141.006 177.706,140.476 177.706,139.803 L 177.706,125.355 z M 141.845,139.657 C 141.845,140.332 142.375,140.861 143.049,140.861 C 143.723,140.861 144.252,140.332 144.252,139.657 L 144.252,125.499 C 144.252,124.825 143.723,124.296 143.049,124.296 C 142.375,124.296 141.845,124.825 141.845,125.499 L 141.845,130.989 L 130.768,130.989 L 130.768,125.499 C 130.768,124.825 130.24,124.296 129.565,124.296 C 128.89,124.296 128.361,124.825 128.361,125.499 L 128.361,139.657 C 128.361,140.332 128.89,140.861 129.565,140.861 C 130.24,140.861 130.768,140.332 130.768,139.657 L 130.768,133.301 L 141.845,133.301 L 141.845,139.657 z M 104.058,130.894 C 104.058,124.874 107.767,124.152 110.559,124.152 C 111.234,124.152 111.763,124.682 111.763,125.356 C 111.763,126.03 111.234,126.56 110.559,126.56 C 108.296,126.56 106.466,127.041 106.466,130.894 L 106.466,134.265 C 106.466,140.285 102.758,141.006 99.964,141.006 C 99.29,141.006 98.761,140.476 98.761,139.803 C 98.761,139.128 99.29,138.599 99.964,138.599 C 102.228,138.599 104.058,138.117 104.058,134.265 L 104.058,130.894 z M 82.207,126.174 C 82.641,125.74 82.786,124.97 82.303,124.537 C 81.822,124.056 80.907,124.248 80.425,124.729 L 75.031,130.989 L 70.986,130.989 L 70.986,125.499 C 70.986,124.825 70.457,124.296 69.782,124.296 C 69.107,124.296 68.578,124.825 68.578,125.499 L 68.578,139.657 C 68.578,140.332 69.107,140.861 69.782,140.861 C 70.456,140.861 70.986,140.332 70.986,139.657 L 70.986,133.301 L 74.213,133.301 L 80.907,140.38 C 81.388,140.909 82.303,141.054 82.785,140.573 C 83.266,140.139 83.121,139.369 82.688,138.935 L 76.668,132.578 L 82.207,126.174 z M 36.553,132.578 C 36.553,129.256 39.25,126.559 42.573,126.559 C 45.896,126.559 48.593,129.255 48.593,132.578 C 48.593,135.901 45.896,138.599 42.573,138.599 C 39.25,138.599 36.553,135.901 36.553,132.578 z M 34.145,132.578 C 34.145,137.25 37.901,141.006 42.573,141.006 C 47.244,141.006 51,137.25 51,132.578 C 51,127.907 47.244,124.151 42.573,124.151 C 37.901,124.151 34.145,127.907 34.145,132.578 z M 8.331,133.783 C 8.813,133.783 9.053,133.637 9.535,133.157 L 14.158,128.388 L 14.158,139.657 C 14.158,140.332 14.688,140.861 15.363,140.861 C 16.037,140.861 16.567,140.332 16.567,139.657 L 16.567,125.499 C 16.567,124.825 16.037,124.296 15.363,124.296 C 14.881,124.296 14.64,124.441 14.158,124.922 L 8.283,130.894 L 2.408,124.922 C 1.927,124.441 1.686,124.296 1.204,124.296 C 0.529,124.296 -4.4408921e-16,124.825 -4.4408921e-16,125.499 L -4.4408921e-16,139.657 C -4.4408921e-16,140.332 0.529,140.861 1.204,140.861 C 1.878,140.861 2.408,140.332 2.408,139.657 L 2.408,128.388 L 7.128,133.157 C 7.608,133.638 7.849,133.783 8.331,133.783 z"
   id="Moksha"
   style="fill:url(#linearGradient2478);fill-rule:evenodd" /><path
   d="M 103.906,0 C 94.379,9.425 86.292,21.159 80.523,34.75 C 74.864,48.083 72.04,61.779 71.783,74.946 C 77.178,77.057 82.245,80.183 86.863,84.157 C 91.956,70.722 99.909,59.535 109.658,52.013 C 116.909,64.911 121.203,80.924 121.203,98.273 C 121.203,101.47 121.057,104.623 120.773,107.718 C 154.875,67.54 120.265,16.087 103.906,0 z"
   id="path24"
   style="fill:url(#linearGradient2475)" /><path
   d="M 103.906,0 C 105.801,5.334 107.4,11.096 108.549,17.003 C 110.938,29.293 111.208,41.212 109.658,52.014 C 99.909,59.535 91.956,70.722 86.863,84.158 C 82.245,80.184 77.177,77.058 71.783,74.947 C 72.04,61.78 74.865,48.084 80.523,34.751 C 86.292,21.159 94.378,9.425 103.906,0 z"
   id="path31"
   style="fill:url(#linearGradient2472)" /><path
   d="M 55.147,71.818 C 50.007,62.642 46.172,51.935 43.883,40.158 C 43.162,36.451 42.496,32.898 42.192,29.288 C 65.238,34.078 84.794,47.505 96.588,65.762 C 92.713,71.204 89.425,77.395 86.862,84.156 C 77.79,76.349 66.979,71.817 55.372,71.817 L 55.147,71.818 z"
   id="path38"
   style="fill:url(#linearGradient2469)" /><path
   d="M 103.906,0 C 105.801,5.334 107.4,11.096 108.549,17.003 C 110.938,29.293 111.208,41.212 109.658,52.014 C 99.909,59.535 91.956,70.722 86.863,84.158 C 82.245,80.184 77.177,77.058 71.783,74.947 C 72.04,61.78 74.865,48.084 80.523,34.751 C 86.292,21.159 94.378,9.425 103.906,0 z"
   mask="url(#SVGID_5_)"
   id="path60"
   style="opacity:0.7;fill:url(#SVGID_7_)" />
<path
   d="M 103.906,0 C 105.801,5.334 107.4,11.096 108.549,17.003 C 110.938,29.293 111.208,41.212 109.658,52.014 C 99.909,59.535 91.956,70.722 86.863,84.158 C 82.245,80.184 77.177,77.058 71.783,74.947 C 72.04,61.78 74.865,48.084 80.523,34.751 C 86.292,21.159 94.378,9.425 103.906,0 z"
   mask="url(#mask2454)"
   id="path2483"
   style="opacity:0.7;fill:url(#linearGradient2472)" /></svg>